<svg xmlns="http://www.w3.org/2000/svg" viewBox="0 0 622.56 622.56"><defs><style>.a{fill:#171d25;}</style></defs><path class="a" d="M400,88.72C228.09,88.72,88.72,228.09,88.72,400S228.09,711.28,400,711.28,711.28,571.91,711.28,400,571.91,88.72,400,88.72ZM166,426.15C158.74,369.7,179.58,309,210.27,278.31c-.19,13,3.7,23.5,11.92,32.59-30.07,51.17-32.93,104.4-12.53,159.49,8.75-45.68,32.81-82.13,67.08-113.35,7.76,7.35,15.43,14.61,23.16,21.95-54,50.55-77.38,110.32-57.18,184.4C199.88,527.1,173.17,482,166,426.15Zm233.53,53.16c7.37,7,14.74,13.47,21.57,20.48,23.66,24.3,51.85,40.65,85.08,47.38,13.21,2.68,26.9,3.05,40.57,4.5a.13.13,0,0,0,0-.08c0-.74.16-.31,0,0v.08h0c-23.09,33-51.74,59.19-91.26,70.79-39,11.44-78.14,12.22-116.61-2.34-47.58-18-61.59-61-51.51-103.27,6-25.06,20.42-45.28,38.15-63.4,16.55-16.9,33.12-33.78,50.4-51.41l-26.8-26.36c-11.53-11.33-23.29-22.43-34.53-34-13.06-13.51-28-24.48-43.49-35-8.23-5.56-15-13.3-22-20.54,23.43-2.86,45.48.32,64.75,13.44,12.16,8.29,23.28,18.28,34.08,28.35,17,15.9,33.43,32.51,50.1,48.82.59.57,1.26,1.06,2.29,1.93,3-2.88,6-5.68,8.88-8.57,17-17,34.1-33.77,50.82-51A89.57,89.57,0,0,0,484.41,273c.16-.78.19-1.58.29-2.45-28.56,4.9-49.38,15.91-84.09,57.45-1.35-1.42-2.71-2.78-4-4.2-18.12-20.12-37.08-39.22-61.27-52.27-22.64-12.21-46.58-19.3-72.42-19.53-1.6,0-3.2-.16-6.34-.33,5.56-7.68,10.08-14.82,15.46-21.23,31.51-37.52,72.07-56.16,120.88-57.7,22.93-.73,45.14,2.2,66.41,11,18.88,7.84,35.09,19.1,45.65,37.18,14.38,24.61,14.29,50.26,5.22,76.5-7.61,22-20.72,40.43-37.13,56.71-14.55,14.43-29,29-43.42,43.51-1.62,1.63-3.18,3.33-6,6.29,5.53,5,11,9.55,16.1,14.53q22.68,22.2,45.08,44.69a140.87,140.87,0,0,0,37.42,27.19c12,5.94,19.48,16.81,29.45,25.43C517,521.7,488,510.65,463.18,488,443,469.5,423.9,450,404.35,430.88a48,48,0,0,1-3.44-4.14c-15.18,15.06-29.88,29.55-44.45,44.17-7,7.07-14,14.26-20.74,21.64A75.71,75.71,0,0,0,316,535.15C353.1,529.33,377.7,505.66,399.52,479.31Zm191.45,43c1.36-14-3.78-24.51-11.81-33.56C609.42,439.43,610,388.16,591.1,335.36c-8.64,45.29-29.79,82.81-66.85,111.5l-23.37-21.72c28.29-20.73,46.44-48.52,56.91-81.56,10.39-32.79,13.8-65.62,0-98.55,29.47,12.81,69.63,82,76,128.79C642.84,439.1,618.34,494.44,591,522.33Z" transform="translate(-88.72 -88.72)"/><path class="a" d="M484.05,571.11c-2.29,1.69-3.71,2.93-5.3,3.88-41.86,25.12-85.9,29.09-131.72,12.93-11.57-4.08-21-11.72-29.19-22.1C350.75,561.2,377.44,546.2,400,522,423.06,547,451.92,560.76,484.05,571.11Z" transform="translate(-88.72 -88.72)"/><path class="a" d="M479.15,234.68c-14.51,5.66-29.3,10.45-43.19,17.12s-25.8,16.95-36.53,28.88c-22.94-24.87-51.35-40.49-83.48-52,7.27-4.18,14.22-9,21.84-12.44,38.87-17.29,78-19.17,117.22-.9A68.71,68.71,0,0,1,479.15,234.68Z" transform="translate(-88.72 -88.72)"/></svg>